<svg width="24" height="24" viewBox="0 0 24 24" fill="none" xmlns="http://www.w3.org/2000/svg">
  <defs>
    <linearGradient id="yellow-gradient" x1="0%" y1="0%" x2="100%" y2="0%">
      <stop offset="0%" style="stop-color:#FFEB3B;stop-opacity:1" />
      <stop offset="50%" style="stop-color:#FFC107;stop-opacity:1" />
      <stop offset="100%" style="stop-color:#FFA000;stop-opacity:1" />
    </linearGradient>
  </defs>
  <path d="M12 2C6.48 2 2 6.48 2 12C2 13.59 2.37 15.12 3 16.5L2 22L7.5 21C8.88 21.63 10.41 22 12 22C17.52 22 22 17.52 22 12C22 6.48 17.52 2 12 2ZM12 20C7.59 20 4 16.41 4 12C4 7.59 7.59 4 12 4C16.41 4 20 7.59 20 12C20 16.41 16.41 20 12 20Z" fill="url(#yellow-gradient)"/>
  <circle cx="10" cy="12" r="0.75" fill="white"/>
  <circle cx="12" cy="12" r="0.75" fill="white"/>
  <circle cx="14" cy="12" r="0.75" fill="white"/>
</svg>